<?xml version="1.0" encoding="UTF-8"?>
<svg id="Layer_2" data-name="Layer 2" xmlns="http://www.w3.org/2000/svg" viewBox="0 0 702.59 235.03">
  <defs>
    <style>
      .cls-1 {
        fill: #fff;
      }
    </style>
  </defs>
  <g id="Layer_1-2" data-name="Layer 1">
    <g>
      <g>
        <path class="cls-1" d="M682.81,183.03c-2.31-8.2-5.34-16.19-9.03-23.86-4.8-9.98-10.7-19.43-17.59-28.1-1.41-1.76-2.84-3.5-4.32-5.2-10.8-12.53-23.39-23.16-37.7-31.47-.01,0-.02-.01-.03-.02-1.11-.65-.79-2.31.48-2.5,5.07-.78,10.06-2.11,14.83-3.92,7.69-2.91,14.89-7.23,21.06-12.66,4.18-3.68,8.05-7.85,11.3-12.42.72-1.01.37-2.41-.73-2.97-5.15-2.62-10.71-4.63-16.62-5.94-2.53-.57-5.04-.98-7.56-1.27-6.8-.77-13.7-.55-20.44.66-3.4.61-6.73,1.46-9.97,2.56-3.67,1.21-7.21,2.73-10.62,4.54-1.25.65-2.48,1.35-3.69,2.08-6.99.17-13.94,1.38-20.58,3.57-5.63,1.86-11.01,4.41-16,7.59-.77.49-1.51.99-2.25,1.5-2.52,1.73-4.89,3.63-7.15,5.67-2.17,1.97-2.54,5.23-.89,7.65,2.01,2.93,4.2,5.69,6.16,7.82,2.76,3,5.73,5.82,8.95,8.33,2.76,2.14,5.58,3.94,8.33,5.21.9.41,1.91,1.2,1.91,2.29.06.82-.29,1.65-1.2,2.16-1.32.76-2.61,1.54-3.86,2.4-10.11,6.83-17.54,14.6-23.9,25.08-.69,1.14.37,2.56,1.67,2.18,0-.01.02-.01.04-.01.06-.02.11-.04.17-.05,8.02-2.31,16.18-4.06,24.49-4.93,4.56-.45,9.13-.71,13.71-.62,17.15.31,33.12,5.31,48.14,13.41,14.37,7.76,27.51,17.81,38.68,29.73,2.65,2.83,5.25,5.71,7.71,8.7,2.67,3.25,5.06,6.65,7.41,10.13.89,1.31,2.91.48,2.67-1.08-.86-5.48-2.11-10.9-3.61-16.24M586.9,82.15c-4.15-1.38-8.38-2.57-12.69-3.58-.08-.45-.13-.91-.13-1.38,0-4.07,3.3-7.38,7.38-7.38s7.38,3.3,7.38,7.38c0,1.91-.73,3.65-1.93,4.96"/>
        <path class="cls-1" d="M581.22,5.57c1.63,0,3.27.9,4.77,3.17,2.89,4.37,4.51,9.37,6.69,14.08,2.1,4.53,3.28,7.75,5.94,11.98,1.11,1.77,2.16,3.58,3.35,5.29.5.72,1.04,1.44,1.61,2.13,2.15,2.58,5.32,3.99,8.62,3.99.72,0,1.45-.07,2.17-.2,4.78-.91,9.66-1.37,14.55-1.37,5.76,0,11.55.64,17.21,1.91,6.15,1.37,12.08,3.46,17.67,6.22,1.01.5,2.99,1.56,2.99,1.56,3.91,2.15,5.15,7.18,2.67,10.9-5.9,8.86-13.52,15.46-21.87,21.92-4.18,3.14-7.52,5.92-8.29,12.01-.32,2.52,1.04,4.37,2.84,6.01,7.24,5.73,13.8,12.35,19.69,19.38,23.39,27.83,36.26,64.27,35.12,100.63-.08,2.72-2.28,4.29-4.47,4.29-1.57,0-3.15-.81-3.94-2.58-9.68-21.75-24.85-41.07-43.68-55.65-9.41-7.32-19.76-13.44-30.69-18.2-6.07-2.73-12.43-4.69-18.94-5.85-.81-.14-1.62-.2-2.44-.2-6.35,0-12.89,3.86-17.49,7.56-6.53,5.24-10.26,12.28-16.1,18.2-1.69,1.71-3.52,2.47-5.2,2.47-2.78,0-5.14-2.09-5.73-5.37-.52-2.88-.95-6.08-1.3-9.38-.43-4.01-3.81-6.86-7.57-6.86-.84,0-1.71.14-2.56.45-1.11.4-2.21.82-3.31,1.25-.46.19-.92.28-1.37.28-2.47,0-4.6-2.65-3.57-5.15,1.78-4.73,3.96-9.34,6.66-13.65,2.57-3.87,5.5-7.52,8.73-10.87,1.68-1.75,2.5-4.19,2.04-6.57-.87-4.51-3.76-8.04-7.34-10.78-3.59-2.74-7.66-4.7-11.5-7.07-5.93-3.67-11.63-7.74-17.1-12.07-3.73-2.95-7.43-6.65-8.37-11.5-1.43-7.31,10.2-8.99,15.07-9.62,10.5-1.39,21.12-2.41,31.31-5.44,4.59-1.37,9.08-3.61,11.5-7.92.47-.85.88-1.73,1.24-2.63,1.47-3.74,1.97-7.74,2.63-11.68,1.36-8.22,3.83-16.55,7.22-24.17,1.44-3.25,3.26-6.44,5.96-8.81,1.43-1.25,3.01-2.1,4.59-2.1M581.22,0v5.57V0c-2.84,0-5.62,1.17-8.25,3.47-3.85,3.39-6.06,7.75-7.39,10.74-3.85,8.66-6.4,17.8-7.89,27.16-.52,3.21-1,6.24-2.05,8.91-.28.7-.58,1.35-.92,1.95-1.31,2.34-3.93,4.03-8.23,5.31-8.17,2.43-16.6,3.49-25.52,4.62-1.64.21-3.29.42-4.93.63-6.82.9-14.29,2.51-17.99,7.66-1.79,2.49-2.42,5.44-1.81,8.55,1.36,6.98,6.58,11.79,10.38,14.8,5.87,4.65,11.8,8.84,17.62,12.44,1.39.86,2.8,1.66,4.16,2.44,2.48,1.41,4.83,2.75,6.89,4.32,2.98,2.27,4.74,4.76,5.25,7.4.1.54-.12,1.18-.59,1.66-3.45,3.59-6.6,7.51-9.36,11.65l-.04.06-.04.06c-2.72,4.35-5.12,9.25-7.13,14.59-1.11,2.79-.76,5.96.94,8.5,1.78,2.66,4.7,4.24,7.82,4.24,1.19,0,2.36-.23,3.47-.69,1.01-.4,2.05-.79,3.1-1.17.22-.08.45-.12.67-.12.9,0,1.91.7,2.03,1.88.38,3.59.84,6.88,1.36,9.78,1.06,5.86,5.67,9.95,11.21,9.95,3.28,0,6.53-1.47,9.16-4.13,2.66-2.69,4.85-5.51,6.97-8.23,2.75-3.54,5.35-6.88,8.66-9.53,5.01-4.03,10.12-6.34,14.01-6.34.52,0,1.03.04,1.51.12,6.04,1.08,11.97,2.91,17.59,5.44h.03s.03.03.03.03c10.58,4.61,20.51,10.49,29.49,17.48,18.16,14.06,32.68,32.57,42.01,53.52,1.63,3.64,5.09,5.88,9.03,5.88,5.47,0,9.88-4.26,10.04-9.69,1.16-37.4-12.11-75.45-36.43-104.38-6.43-7.68-13.27-14.42-20.33-20.03-.69-.64-.89-.98-.94-1.09.47-3.69,2.14-5.27,6.11-8.25l.03-.03.03-.02c4.54-3.44,9-6.76,13-10.84.79-.8,1.58-1.64,2.42-2.56l.2-.21c2.77-3.07,5.28-6.3,7.46-9.59l.02-.03c2.04-3.07,2.71-6.87,1.83-10.45-.88-3.58-3.23-6.64-6.49-8.43h-.03c-.08-.06-2.07-1.12-3.15-1.65-5.98-2.95-12.34-5.19-18.92-6.66-6.05-1.35-12.25-2.04-18.43-2.04-5.22,0-10.46.49-15.59,1.46-.37.07-.75.11-1.13.11-1.71,0-3.29-.72-4.34-1.99-.43-.51-.86-1.08-1.32-1.74-.77-1.11-1.49-2.29-2.26-3.54-.31-.51-.63-1.02-.94-1.53-1.79-2.86-2.83-5.19-4.14-8.13-.46-1.02-.93-2.09-1.47-3.25-.63-1.35-1.21-2.74-1.82-4.21-1.47-3.5-2.99-7.13-5.27-10.59-3.09-4.68-6.83-5.67-9.41-5.67"/>
        <path class="cls-1" d="M700.03,136.11c.54,3.61-.33,6.83-2.62,9.66-.42.52-.91,1.01-1.43,1.43-2.82,2.26-6.03,3.12-9.61,2.59-.68-.1-1.34-.28-1.98-.52-3.39-1.31-5.76-3.66-7.1-7.04-.25-.63-.43-1.29-.54-1.97-.58-3.62.29-6.86,2.58-9.74.43-.54.92-1.03,1.46-1.46,2.85-2.27,6.07-3.13,9.68-2.57.66.1,1.32.28,1.95.52,3.39,1.32,5.75,3.68,7.08,7.09.25.64.43,1.31.53,1.99M696.6,139.75c.53-3.56-.65-6.41-3.54-8.56-.9-.67-1.97-1.11-3.08-1.28-3.56-.53-6.41.65-8.56,3.54-.67.9-1.11,1.97-1.28,3.08-.53,3.56.65,6.42,3.55,8.56.9.67,1.97,1.11,3.08,1.28,3.56.53,6.41-.65,8.56-3.55.67-.9,1.11-1.97,1.28-3.08M683.66,132.18h5.33c1.51,0,2.6.31,3.28.91.68.61,1.02,1.43,1.02,2.45,0,.8-.26,1.49-.77,2.08-.52.58-1.33,1.01-2.44,1.27.46.18.79.36,1.01.56.3.27.62.68.95,1.21.02.04.66,1.19,1.93,3.45h-3.51c-1.14-2.27-1.9-3.63-2.29-4.07-.39-.44-.78-.66-1.17-.66-.09,0-.21.01-.37.04v4.69h-2.96v-11.92ZM686.5,137.18h1.36c.91,0,1.55-.15,1.92-.44.37-.29.56-.67.56-1.14s-.18-.84-.53-1.14c-.36-.29-.96-.44-1.82-.44h-1.48v3.15Z"/>
      </g>
      <g>
        <path class="cls-1" d="M49.46,113.57c-1.67-2.42-3.9-4.19-6.7-5.32-2.8-1.13-5.74-1.69-8.83-1.69-1.84,0-3.61.21-5.32.63-1.71.42-3.26,1.09-4.63,2-1.38.92-2.48,2.11-3.32,3.57-.84,1.46-1.25,3.19-1.25,5.2,0,3.01,1.04,5.3,3.13,6.89,2.09,1.59,4.67,2.96,7.76,4.13,3.09,1.17,6.47,2.3,10.14,3.38,3.67,1.09,7.05,2.59,10.14,4.51,3.09,1.92,5.68,4.47,7.76,7.64,2.09,3.17,3.13,7.39,3.13,12.65,0,4.76-.88,8.91-2.63,12.46-1.75,3.55-4.11,6.49-7.07,8.83-2.96,2.34-6.41,4.09-10.33,5.26-3.92,1.17-8.06,1.75-12.4,1.75-5.51,0-10.81-.92-15.9-2.75-5.09-1.83-9.47-4.92-13.15-9.27l11.89-11.52c1.92,2.92,4.44,5.2,7.58,6.82,3.13,1.63,6.45,2.44,9.95,2.44,1.83,0,3.67-.25,5.51-.75,1.83-.5,3.51-1.25,5.01-2.25,1.5-1,2.71-2.27,3.63-3.82.92-1.54,1.38-3.32,1.38-5.32,0-3.26-1.04-5.76-3.13-7.51-2.09-1.75-4.68-3.23-7.76-4.44-3.09-1.21-6.47-2.36-10.14-3.44-3.67-1.08-7.05-2.57-10.14-4.44-3.09-1.88-5.68-4.38-7.76-7.51-2.09-3.13-3.13-7.32-3.13-12.58,0-4.59.94-8.56,2.82-11.89,1.88-3.34,4.34-6.11,7.39-8.33,3.05-2.21,6.53-3.86,10.46-4.95,3.92-1.08,7.93-1.63,12.02-1.63,4.67,0,9.2.71,13.58,2.13,4.38,1.42,8.33,3.76,11.83,7.01l-11.52,12.15Z"/>
        <path class="cls-1" d="M126.33,183.19h-14.27v-9.64h-.25c-1.42,3-3.59,5.61-6.51,7.83-2.92,2.21-6.89,3.32-11.89,3.32-4.01,0-7.41-.65-10.2-1.94-2.8-1.29-5.07-3.05-6.82-5.26-1.75-2.21-3-4.74-3.76-7.57-.75-2.84-1.13-5.8-1.13-8.89v-37.94h15.02v30.43c0,1.67.08,3.53.25,5.57.17,2.05.6,3.97,1.31,5.76.71,1.8,1.79,3.3,3.26,4.51,1.46,1.21,3.53,1.82,6.2,1.82,2.5,0,4.61-.42,6.32-1.25,1.71-.83,3.13-1.96,4.26-3.38,1.13-1.42,1.94-3.05,2.44-4.88.5-1.83.75-3.76.75-5.76v-32.8h15.02v60.1Z"/>
        <path class="cls-1" d="M140.85,123.09h15.02v9.52h.25c1.67-3.51,4.05-6.22,7.14-8.14,3.09-1.92,6.64-2.88,10.64-2.88.92,0,1.82.08,2.69.25.88.17,1.77.38,2.69.63v14.52c-1.25-.33-2.48-.6-3.69-.81-1.21-.21-2.4-.31-3.57-.31-3.51,0-6.32.65-8.45,1.94-2.13,1.3-3.76,2.78-4.88,4.45-1.13,1.67-1.88,3.34-2.25,5.01-.38,1.67-.56,2.92-.56,3.76v32.18h-15.02v-60.1Z"/>
        <path class="cls-1" d="M181.8,153.14c0-4.76.85-9.08,2.57-12.96,1.71-3.88,4.03-7.2,6.95-9.95,2.92-2.75,6.39-4.88,10.39-6.39,4.01-1.5,8.26-2.25,12.77-2.25s8.76.75,12.77,2.25c4.01,1.5,7.47,3.63,10.39,6.39,2.92,2.75,5.24,6.07,6.95,9.95,1.71,3.88,2.57,8.2,2.57,12.96s-.86,9.08-2.57,12.96c-1.71,3.88-4.03,7.2-6.95,9.95-2.92,2.75-6.39,4.88-10.39,6.39-4.01,1.5-8.26,2.25-12.77,2.25s-8.76-.75-12.77-2.25c-4.01-1.5-7.47-3.63-10.39-6.39-2.92-2.75-5.24-6.07-6.95-9.95-1.71-3.88-2.57-8.2-2.57-12.96ZM196.82,153.14c0,2.34.4,4.59,1.19,6.76.79,2.17,1.96,4.09,3.51,5.76,1.54,1.67,3.4,3.01,5.57,4.01,2.17,1,4.63,1.5,7.39,1.5s5.22-.5,7.39-1.5c2.17-1,4.03-2.34,5.57-4.01,1.54-1.67,2.71-3.59,3.51-5.76.79-2.17,1.19-4.42,1.19-6.76s-.4-4.59-1.19-6.76c-.79-2.17-1.96-4.09-3.51-5.76-1.55-1.67-3.4-3-5.57-4.01-2.17-1-4.63-1.5-7.39-1.5s-5.22.5-7.39,1.5c-2.17,1-4.03,2.34-5.57,4.01-1.55,1.67-2.71,3.59-3.51,5.76-.79,2.17-1.19,4.43-1.19,6.76Z"/>
        <path class="cls-1" d="M319.27,123.09v54.72c0,5.43-.67,10.33-2,14.71-1.34,4.38-3.4,8.1-6.2,11.14-2.8,3.05-6.32,5.4-10.58,7.07-4.26,1.67-9.31,2.5-15.15,2.5s-10.89-.71-15.9-2.13c-5.01-1.42-9.64-4.01-13.9-7.76l9.02-12.27c3,2.75,6.14,4.88,9.39,6.39s7.01,2.25,11.27,2.25c3.59,0,6.61-.5,9.08-1.5,2.46-1,4.42-2.38,5.88-4.13,1.46-1.75,2.5-3.86,3.13-6.32.63-2.46.94-5.2.94-8.2v-4.38h-.25c-2.17,2.92-5.05,5.11-8.64,6.57-3.59,1.46-7.26,2.19-11.02,2.19-4.51,0-8.6-.81-12.27-2.44-3.67-1.63-6.82-3.82-9.45-6.57-2.63-2.75-4.65-6.01-6.07-9.77-1.42-3.76-2.13-7.76-2.13-12.02s.67-8.56,2-12.4c1.33-3.84,3.3-7.18,5.88-10.02,2.59-2.84,5.7-5.07,9.33-6.7,3.63-1.63,7.78-2.44,12.46-2.44,4.26,0,8.22.84,11.89,2.5,3.67,1.67,6.59,4.34,8.76,8.01h.25v-9.01h14.27ZM287.22,135.11c-2.67,0-5.09.44-7.26,1.31-2.17.88-4.03,2.09-5.57,3.63s-2.75,3.42-3.63,5.63c-.88,2.21-1.31,4.65-1.31,7.32,0,2.42.44,4.68,1.31,6.76.88,2.09,2.11,3.92,3.69,5.51,1.58,1.59,3.46,2.84,5.63,3.76,2.17.92,4.51,1.38,7.01,1.38,2.75,0,5.24-.46,7.45-1.38,2.21-.92,4.09-2.15,5.63-3.69,1.54-1.54,2.73-3.4,3.57-5.57.83-2.17,1.25-4.51,1.25-7.01,0-5.26-1.59-9.52-4.76-12.77-3.17-3.26-7.51-4.88-13.02-4.88Z"/>
        <path class="cls-1" d="M371.36,174.92h-.38c-2.17,3.42-4.93,5.91-8.26,7.45-3.34,1.54-7.01,2.32-11.02,2.32-2.75,0-5.45-.38-8.08-1.13s-4.97-1.88-7.01-3.38c-2.05-1.5-3.69-3.38-4.95-5.63-1.25-2.25-1.88-4.88-1.88-7.89,0-3.26.58-6.03,1.75-8.33,1.17-2.29,2.73-4.21,4.7-5.76,1.96-1.54,4.24-2.77,6.82-3.69,2.59-.92,5.28-1.61,8.08-2.07,2.8-.46,5.61-.75,8.45-.88,2.84-.13,5.51-.19,8.01-.19h3.76v-1.63c0-3.76-1.3-6.57-3.88-8.45-2.59-1.88-5.88-2.82-9.89-2.82-3.17,0-6.14.56-8.89,1.69-2.75,1.13-5.13,2.65-7.14,4.57l-7.89-7.89c3.34-3.42,7.24-5.88,11.71-7.39,4.46-1.5,9.08-2.25,13.84-2.25,4.26,0,7.84.48,10.77,1.44,2.92.96,5.34,2.19,7.26,3.69,1.92,1.5,3.4,3.24,4.44,5.2,1.04,1.96,1.79,3.94,2.25,5.95.46,2,.73,3.94.81,5.82.08,1.88.12,3.53.12,4.95v34.56h-13.52v-8.26ZM370.48,156.27h-3.13c-2.09,0-4.43.08-7.01.25-2.59.17-5.03.56-7.32,1.19-2.3.63-4.24,1.55-5.82,2.75-1.59,1.21-2.38,2.9-2.38,5.07,0,1.42.31,2.61.94,3.57.63.96,1.44,1.77,2.44,2.44,1,.67,2.13,1.15,3.38,1.44,1.25.29,2.5.44,3.76.44,5.17,0,8.99-1.23,11.46-3.69,2.46-2.46,3.69-5.82,3.69-10.08v-3.38Z"/>
        <path class="cls-1" d="M392.77,135.86v-12.77h12.4v-17.4h15.02v17.4h16.53v12.77h-16.53v26.29c0,3,.56,5.38,1.69,7.14,1.13,1.75,3.36,2.63,6.7,2.63,1.33,0,2.8-.15,4.38-.44,1.58-.29,2.84-.77,3.76-1.44v12.65c-1.59.75-3.53,1.27-5.82,1.56-2.3.29-4.32.44-6.07.44-4.01,0-7.28-.44-9.83-1.31-2.55-.88-4.55-2.21-6.01-4.01-1.46-1.79-2.46-4.03-3-6.7-.54-2.67-.81-5.76-.81-9.27v-27.55h-12.4Z"/>
        <path class="cls-1" d="M458,158.4c.5,4.51,2.25,8.01,5.26,10.52s6.64,3.76,10.89,3.76c3.76,0,6.91-.77,9.45-2.32,2.55-1.54,4.78-3.48,6.7-5.82l10.77,8.14c-3.51,4.34-7.43,7.43-11.77,9.27-4.34,1.84-8.89,2.75-13.65,2.75-4.51,0-8.76-.75-12.77-2.25-4.01-1.5-7.47-3.63-10.39-6.39-2.92-2.75-5.24-6.07-6.95-9.95-1.71-3.88-2.57-8.2-2.57-12.96s.85-9.08,2.57-12.96c1.71-3.88,4.03-7.2,6.95-9.95,2.92-2.75,6.39-4.88,10.39-6.39,4.01-1.5,8.26-2.25,12.77-2.25,4.17,0,7.99.73,11.46,2.19,3.46,1.46,6.43,3.57,8.89,6.32,2.46,2.75,4.38,6.16,5.76,10.2,1.38,4.05,2.07,8.7,2.07,13.96v4.13h-45.83ZM488.8,147.13c-.08-4.42-1.46-7.91-4.13-10.45-2.67-2.55-6.39-3.82-11.14-3.82-4.51,0-8.08,1.29-10.71,3.88-2.63,2.59-4.24,6.05-4.82,10.39h30.8Z"/>
      </g>
    </g>
  </g>
</svg>