<?xml version="1.0" encoding="UTF-8"?>
<svg id="Layer_2" data-name="Layer 2" xmlns="http://www.w3.org/2000/svg" viewBox="0 0 702.57 227.69">
  <g id="Layer_1-2" data-name="Layer 1">
    <g>
      <g>
        <path d="M702.43,130.54c.49,3.24-.3,6.13-2.35,8.67-.38.47-.81.9-1.28,1.28-2.53,2.03-5.41,2.8-8.63,2.33-.61-.09-1.21-.25-1.78-.47-3.05-1.18-5.17-3.28-6.37-6.31-.22-.57-.39-1.16-.48-1.77-.52-3.25.26-6.16,2.32-8.74.39-.48.83-.93,1.31-1.31,2.56-2.04,5.45-2.81,8.68-2.31.6.09,1.19.25,1.75.47,3.04,1.18,5.16,3.31,6.36,6.37.22.58.39,1.18.48,1.79M699.35,133.8c.48-3.2-.58-5.75-3.18-7.68-.81-.6-1.77-1-2.77-1.15-3.19-.48-5.75.58-7.68,3.18-.6.81-1,1.77-1.15,2.77-.48,3.2.58,5.76,3.18,7.68.81.6,1.77,1,2.76,1.15,3.19.48,5.75-.58,7.68-3.18.6-.81,1-1.77,1.15-2.77M687.74,127.01h4.79c1.35,0,2.34.27,2.94.82.61.55.91,1.28.91,2.2,0,.72-.23,1.34-.69,1.86-.46.52-1.19.9-2.19,1.14.41.16.71.32.9.5.27.24.56.61.85,1.09.02.04.59,1.07,1.73,3.09h-3.15c-1.02-2.04-1.71-3.25-2.06-3.65-.35-.4-.7-.6-1.05-.6-.08,0-.19.01-.33.04v4.21h-2.66v-10.7ZM690.29,131.5h1.22c.81,0,1.39-.13,1.72-.4.33-.26.5-.6.5-1.02s-.16-.76-.48-1.02c-.32-.26-.86-.4-1.63-.4h-1.33v2.83Z"/>
        <path d="M577.54,72.84c0,.48.05.95.14,1.4,4.38,1.03,8.69,2.24,12.91,3.64,1.21-1.33,1.96-3.1,1.96-5.04,0-4.14-3.36-7.5-7.5-7.5s-7.5,3.36-7.5,7.5M544.63,138.55c6.47-10.66,14.03-18.55,24.3-25.5,1.28-.87,2.59-1.67,3.93-2.44.92-.52,1.28-1.37,1.22-2.2,0-1.11-1.03-1.91-1.94-2.33-2.8-1.29-5.67-3.12-8.47-5.3-3.28-2.54-6.29-5.42-9.1-8.47-1.99-2.16-4.22-4.97-6.26-7.95-1.68-2.46-1.31-5.78.9-7.78,2.3-2.08,4.71-4,7.27-5.77.75-.52,1.51-1.03,2.29-1.53,5.07-3.23,10.54-5.83,16.26-7.72,6.75-2.23,13.82-3.46,20.93-3.63,1.23-.74,2.48-1.45,3.75-2.11,3.46-1.84,7.07-3.39,10.8-4.62,3.29-1.12,6.68-1.98,10.14-2.6,6.85-1.23,13.87-1.46,20.78-.67,2.56.29,5.12.71,7.69,1.29,6,1.34,11.66,3.38,16.9,6.05,1.12.57,1.47,1.99.74,3.02-3.3,4.65-7.23,8.88-11.49,12.63-6.28,5.53-13.6,9.91-21.42,12.87-4.85,1.84-9.92,3.19-15.08,3.98-1.29.2-1.62,1.89-.49,2.54.01,0,.02.01.04.02,14.55,8.45,27.35,19.25,38.34,32,1.5,1.73,2.96,3.5,4.39,5.29,7.01,8.82,13.01,18.42,17.88,28.57,3.75,7.8,6.83,15.93,9.18,24.26,1.53,5.43,2.8,10.94,3.67,16.52.24,1.59-1.82,2.43-2.72,1.1-2.39-3.54-4.82-7-7.54-10.3-2.5-3.04-5.14-5.98-7.84-8.85-11.37-12.12-24.72-22.34-39.34-30.23-15.28-8.24-31.51-13.33-48.96-13.64-4.66-.09-9.31.17-13.95.63-8.45.89-16.75,2.67-24.9,5.02-.06.01-.11.03-.17.05-.02,0-.03,0-.04,0-.15.04-.29.06-.43.06-1.11,0-1.89-1.25-1.27-2.28M580.13,2.13c-2.74,2.41-4.6,5.65-6.06,8.96-3.47,7.81-5.94,16.15-7.34,24.58-.66,4-1.18,8.08-2.67,11.88-.36.92-.78,1.81-1.26,2.68-2.46,4.39-7.03,6.67-11.7,8.06-10.37,3.08-21.16,4.12-31.84,5.53-4.95.65-16.77,2.35-15.33,9.79.96,4.93,4.72,8.69,8.51,11.69,5.56,4.4,11.35,8.54,17.39,12.27,3.9,2.41,8.04,4.41,11.69,7.19,3.64,2.78,6.58,6.37,7.47,10.96.47,2.42-.37,4.91-2.08,6.68-3.28,3.41-6.26,7.11-8.88,11.05-2.75,4.39-4.97,9.08-6.78,13.89-1.24,3.01,2.02,6.23,5.03,4.95,1.12-.44,2.24-.87,3.37-1.27,4.73-1.7,9.77,1.52,10.3,6.52.36,3.36.8,6.61,1.32,9.54.97,5.36,6.55,7.58,11.12,2.95,5.94-6.02,9.74-13.18,16.37-18.5,5.29-4.25,13.08-8.71,20.27-7.49,6.63,1.18,13.1,3.17,19.26,5.95,11.12,4.84,21.64,11.06,31.21,18.5,19.14,14.83,34.57,34.47,44.42,56.59,1.94,4.32,8.42,3,8.56-1.74,1.15-36.98-11.94-74.04-35.72-102.34-5.99-7.15-12.67-13.88-20.02-19.7-1.83-1.67-3.21-3.55-2.89-6.11.78-6.19,4.18-9.02,8.43-12.22,5.24-3.94,10.48-8.03,14.95-12.96.06-.07.13-.13.19-.2,2.59-2.87,4.98-5.92,7.1-9.13,2.52-3.78,1.26-8.9-2.72-11.08,0,0-2.01-1.08-3.04-1.58-5.68-2.8-11.71-4.93-17.97-6.32-5.76-1.29-11.65-1.94-17.5-1.94-4.98,0-9.93.47-14.8,1.39-4.09.78-8.3-.65-10.97-3.85-.59-.7-1.13-1.43-1.64-2.17-1.21-1.75-2.28-3.58-3.41-5.38-2.7-4.31-3.9-7.58-6.04-12.19-2.22-4.79-3.87-9.87-6.81-14.32-1.53-2.31-3.19-3.22-4.85-3.22s-3.21.86-4.67,2.13"/>
      </g>
      <g>
        <path d="M49.46,101.49c-1.67-2.42-3.9-4.19-6.7-5.32-2.8-1.13-5.74-1.69-8.83-1.69-1.84,0-3.61.21-5.32.63-1.71.42-3.26,1.09-4.63,2-1.38.92-2.48,2.11-3.32,3.57-.84,1.46-1.25,3.19-1.25,5.2,0,3.01,1.04,5.3,3.13,6.89,2.09,1.59,4.67,2.96,7.76,4.13,3.09,1.17,6.47,2.3,10.14,3.38,3.67,1.09,7.05,2.59,10.14,4.51,3.09,1.92,5.68,4.47,7.76,7.64,2.09,3.17,3.13,7.39,3.13,12.65,0,4.76-.88,8.91-2.63,12.46-1.75,3.55-4.11,6.49-7.07,8.83-2.96,2.34-6.41,4.09-10.33,5.26-3.92,1.17-8.06,1.75-12.4,1.75-5.51,0-10.81-.92-15.9-2.75-5.09-1.83-9.47-4.92-13.15-9.27l11.89-11.52c1.92,2.92,4.44,5.2,7.58,6.82,3.13,1.63,6.45,2.44,9.95,2.44,1.83,0,3.67-.25,5.51-.75,1.83-.5,3.51-1.25,5.01-2.25,1.5-1,2.71-2.27,3.63-3.82.92-1.54,1.38-3.32,1.38-5.32,0-3.26-1.04-5.76-3.13-7.51-2.09-1.75-4.68-3.23-7.76-4.44-3.09-1.21-6.47-2.36-10.14-3.44-3.67-1.08-7.05-2.57-10.14-4.44-3.09-1.88-5.68-4.38-7.76-7.51-2.09-3.13-3.13-7.32-3.13-12.58,0-4.59.94-8.56,2.82-11.89,1.88-3.34,4.34-6.11,7.39-8.33,3.05-2.21,6.53-3.86,10.46-4.95,3.92-1.08,7.93-1.63,12.02-1.63,4.67,0,9.2.71,13.58,2.13,4.38,1.42,8.33,3.76,11.83,7.01l-11.52,12.15Z"/>
        <path d="M126.33,171.11h-14.27v-9.64h-.25c-1.42,3-3.59,5.61-6.51,7.83-2.92,2.21-6.89,3.32-11.89,3.32-4.01,0-7.41-.65-10.2-1.94-2.8-1.29-5.07-3.05-6.82-5.26-1.75-2.21-3-4.74-3.76-7.57-.75-2.84-1.13-5.8-1.13-8.89v-37.94h15.02v30.43c0,1.67.08,3.53.25,5.57.17,2.05.6,3.97,1.31,5.76.71,1.8,1.79,3.3,3.26,4.51,1.46,1.21,3.53,1.82,6.2,1.82,2.5,0,4.61-.42,6.32-1.25,1.71-.83,3.13-1.96,4.26-3.38,1.13-1.42,1.94-3.05,2.44-4.88.5-1.83.75-3.76.75-5.76v-32.8h15.02v60.1Z"/>
        <path d="M140.85,111.01h15.02v9.52h.25c1.67-3.51,4.05-6.22,7.14-8.14,3.09-1.92,6.64-2.88,10.64-2.88.92,0,1.82.08,2.69.25.88.17,1.77.38,2.69.63v14.52c-1.25-.33-2.48-.6-3.69-.81-1.21-.21-2.4-.31-3.57-.31-3.51,0-6.32.65-8.45,1.94-2.13,1.3-3.76,2.78-4.88,4.45-1.13,1.67-1.88,3.34-2.25,5.01-.38,1.67-.56,2.92-.56,3.76v32.18h-15.02v-60.1Z"/>
        <path d="M181.8,141.06c0-4.76.85-9.08,2.57-12.96,1.71-3.88,4.03-7.2,6.95-9.95,2.92-2.75,6.39-4.88,10.39-6.39,4.01-1.5,8.26-2.25,12.77-2.25s8.76.75,12.77,2.25c4.01,1.5,7.47,3.63,10.39,6.39,2.92,2.75,5.24,6.07,6.95,9.95,1.71,3.88,2.57,8.2,2.57,12.96s-.86,9.08-2.57,12.96c-1.71,3.88-4.03,7.2-6.95,9.95-2.92,2.75-6.39,4.88-10.39,6.39-4.01,1.5-8.26,2.25-12.77,2.25s-8.76-.75-12.77-2.25c-4.01-1.5-7.47-3.63-10.39-6.39-2.92-2.75-5.24-6.07-6.95-9.95-1.71-3.88-2.57-8.2-2.57-12.96ZM196.82,141.06c0,2.34.4,4.59,1.19,6.76.79,2.17,1.96,4.09,3.51,5.76,1.54,1.67,3.4,3.01,5.57,4.01,2.17,1,4.63,1.5,7.39,1.5s5.22-.5,7.39-1.5c2.17-1,4.03-2.34,5.57-4.01,1.54-1.67,2.71-3.59,3.51-5.76.79-2.17,1.19-4.42,1.19-6.76s-.4-4.59-1.19-6.76c-.79-2.17-1.96-4.09-3.51-5.76-1.55-1.67-3.4-3-5.57-4.01-2.17-1-4.63-1.5-7.39-1.5s-5.22.5-7.39,1.5c-2.17,1-4.03,2.34-5.57,4.01-1.55,1.67-2.71,3.59-3.51,5.76-.79,2.17-1.19,4.43-1.19,6.76Z"/>
        <path d="M319.27,111.01v54.72c0,5.43-.67,10.33-2,14.71-1.34,4.38-3.4,8.1-6.2,11.14-2.8,3.05-6.32,5.4-10.58,7.07-4.26,1.67-9.31,2.5-15.15,2.5s-10.89-.71-15.9-2.13c-5.01-1.42-9.64-4.01-13.9-7.76l9.02-12.27c3,2.75,6.14,4.88,9.39,6.39s7.01,2.25,11.27,2.25c3.59,0,6.61-.5,9.08-1.5,2.46-1,4.42-2.38,5.88-4.13,1.46-1.75,2.5-3.86,3.13-6.32.63-2.46.94-5.2.94-8.2v-4.38h-.25c-2.17,2.92-5.05,5.11-8.64,6.57-3.59,1.46-7.26,2.19-11.02,2.19-4.51,0-8.6-.81-12.27-2.44-3.67-1.63-6.82-3.82-9.45-6.57-2.63-2.75-4.65-6.01-6.07-9.77-1.42-3.76-2.13-7.76-2.13-12.02s.67-8.56,2-12.4c1.33-3.84,3.3-7.18,5.88-10.02,2.59-2.84,5.7-5.07,9.33-6.7,3.63-1.63,7.78-2.44,12.46-2.44,4.26,0,8.22.84,11.89,2.5,3.67,1.67,6.59,4.34,8.76,8.01h.25v-9.01h14.27ZM287.22,123.03c-2.67,0-5.09.44-7.26,1.31-2.17.88-4.03,2.09-5.57,3.63s-2.75,3.42-3.63,5.63c-.88,2.21-1.31,4.65-1.31,7.32,0,2.42.44,4.68,1.31,6.76.88,2.09,2.11,3.92,3.69,5.51,1.58,1.59,3.46,2.84,5.63,3.76,2.17.92,4.51,1.38,7.01,1.38,2.75,0,5.24-.46,7.45-1.38,2.21-.92,4.09-2.15,5.63-3.69,1.54-1.54,2.73-3.4,3.57-5.57.83-2.17,1.25-4.51,1.25-7.01,0-5.26-1.59-9.52-4.76-12.77-3.17-3.26-7.51-4.88-13.02-4.88Z"/>
        <path d="M371.36,162.84h-.38c-2.17,3.42-4.93,5.91-8.26,7.45-3.34,1.54-7.01,2.32-11.02,2.32-2.75,0-5.45-.38-8.08-1.13s-4.97-1.88-7.01-3.38c-2.05-1.5-3.69-3.38-4.95-5.63-1.25-2.25-1.88-4.88-1.88-7.89,0-3.26.58-6.03,1.75-8.33,1.17-2.29,2.73-4.21,4.7-5.76,1.96-1.54,4.24-2.77,6.82-3.69,2.59-.92,5.28-1.61,8.08-2.07,2.8-.46,5.61-.75,8.45-.88,2.84-.13,5.51-.19,8.01-.19h3.76v-1.63c0-3.76-1.3-6.57-3.88-8.45-2.59-1.88-5.88-2.82-9.89-2.82-3.17,0-6.14.56-8.89,1.69-2.75,1.13-5.13,2.65-7.14,4.57l-7.89-7.89c3.34-3.42,7.24-5.88,11.71-7.39,4.46-1.5,9.08-2.25,13.84-2.25,4.26,0,7.84.48,10.77,1.44,2.92.96,5.34,2.19,7.26,3.69,1.92,1.5,3.4,3.24,4.44,5.2,1.04,1.96,1.79,3.94,2.25,5.95.46,2,.73,3.94.81,5.82.08,1.88.12,3.53.12,4.95v34.56h-13.52v-8.26ZM370.48,144.19h-3.13c-2.09,0-4.43.08-7.01.25-2.59.17-5.03.56-7.32,1.19-2.3.63-4.24,1.55-5.82,2.75-1.59,1.21-2.38,2.9-2.38,5.07,0,1.42.31,2.61.94,3.57.63.96,1.44,1.77,2.44,2.44,1,.67,2.13,1.15,3.38,1.44,1.25.29,2.5.44,3.76.44,5.17,0,8.99-1.23,11.46-3.69,2.46-2.46,3.69-5.82,3.69-10.08v-3.38Z"/>
        <path d="M392.77,123.78v-12.77h12.4v-17.4h15.02v17.4h16.53v12.77h-16.53v26.29c0,3,.56,5.38,1.69,7.14,1.13,1.75,3.36,2.63,6.7,2.63,1.33,0,2.8-.15,4.38-.44,1.58-.29,2.84-.77,3.76-1.44v12.65c-1.59.75-3.53,1.27-5.82,1.56-2.3.29-4.32.44-6.07.44-4.01,0-7.28-.44-9.83-1.31-2.55-.88-4.55-2.21-6.01-4.01-1.46-1.79-2.46-4.03-3-6.7-.54-2.67-.81-5.76-.81-9.27v-27.55h-12.4Z"/>
        <path d="M458,146.32c.5,4.51,2.25,8.01,5.26,10.52s6.64,3.76,10.89,3.76c3.76,0,6.91-.77,9.45-2.32,2.55-1.54,4.78-3.48,6.7-5.82l10.77,8.14c-3.51,4.34-7.43,7.43-11.77,9.27-4.34,1.84-8.89,2.75-13.65,2.75-4.51,0-8.76-.75-12.77-2.25-4.01-1.5-7.47-3.63-10.39-6.39-2.92-2.75-5.24-6.07-6.95-9.95-1.71-3.88-2.57-8.2-2.57-12.96s.85-9.08,2.57-12.96c1.71-3.88,4.03-7.2,6.95-9.95,2.92-2.75,6.39-4.88,10.39-6.39,4.01-1.5,8.26-2.25,12.77-2.25,4.17,0,7.99.73,11.46,2.19,3.46,1.46,6.43,3.57,8.89,6.32,2.46,2.75,4.38,6.16,5.76,10.2,1.38,4.05,2.07,8.7,2.07,13.96v4.13h-45.83ZM488.8,135.05c-.08-4.42-1.46-7.91-4.13-10.45-2.67-2.55-6.39-3.82-11.14-3.82-4.51,0-8.08,1.29-10.71,3.88-2.63,2.59-4.24,6.05-4.82,10.39h30.8Z"/>
      </g>
    </g>
  </g>
</svg>