<?xml version="1.0" encoding="UTF-8"?>
<svg id="Layer_2" data-name="Layer 2" xmlns="http://www.w3.org/2000/svg" viewBox="0 0 76.32 108.17">
  <defs>
    <style>
      .cls-1 {
        fill: #2a102d;
      }
    </style>
  </defs>
  <g id="Layer_2-2" data-name="Layer 2">
    <g>
      <path class="cls-1" d="M58.57,3.86c-.25-.44-.68-.76-1.18-.86-.47-.09-9.92-1.83-20.44,7.25.47,1.04.96,2.15,1.47,3.34,6.76-6.2,12.96-7.25,16.12-7.31-1.34,3.21-4.24,9.7-8.78,17.57-.65,1.12-1.34,2.31-2.06,3.52.5,1.41,1,2.84,1.51,4.28,1.28-2.14,2.47-4.17,3.56-6.06,6.65-11.51,9.78-19.93,9.91-20.28.18-.48.13-1.01-.11-1.45Z"/>
      <path class="cls-1" d="M25.75,33.44c-5.22-16.44-.29-25.4,2.41-28.77,1.44,2.75,4.11,8.11,6.91,15.28.27.71.55,1.44.83,2.18l.19.51c1.13,3.04,2.37,6.5,3.7,10.33,1.27.01,2.52.03,3.71.07-1.5-4.34-2.89-8.23-4.15-11.61l-.2-.52c-.28-.75-.56-1.49-.84-2.22C34.06,7.81,30.22,1.15,30.06.87c-.26-.44-.69-.75-1.19-.84-.5-.09-1.02.04-1.41.36-.53.43-12.27,10.3-5.23,33.41,1.12-.13,2.29-.25,3.53-.36Z"/>
      <path class="cls-1" d="M76.04,44.94c-.09-.27-.26-.55-.49-.84-1.64-2.19-5.49-4.07-7.8-4.82-5.6-2.02-14.76-3.77-29.59-3.77s-23.97,1.76-29.58,3.79v-.02c-.76.25-5.65,2.08-7.73,4.73-.23.28-.45.59-.56.93h-.02c-2.15,6.13,9.05,4.89,10.53,4.38h.01c.03,2.06.04,4.62-.04,6.8,0,25.02-3,39.58-2.67,45.25.33,5.68,25.87,6.8,30.06,6.8s29.72-1.13,30.06-6.8c.33-5.68-2.67-20.24-2.67-45.25-.08-2.17-.07-4.74-.04-6.8,1.49.51,12.68,1.75,10.53-4.38ZM12.95,63.34c.12-1.62.31-5.03.48-8.23,1.51-.54,3.14-.99,4.8-1.37l-1.91,49.15s-2.38-.13-6.27-1.61c2.46-.21,2.54-32.92,2.9-37.94ZM9.52,101.74c6.45,1.95,8.21,2.34,14.97,3.2-4.82.33-10.14-.63-14.97-3.2ZM40.72,105.23c7.23.03,11.58-.12,21.41-2.46-6.85,2.67-14.02,3.53-21.41,2.46ZM47.06,52.27c2.17.19,4.56.47,7,.87.16,12.95.51,40.25.51,42.91,0,3.51,1,5.01,3.16,6.34-4.19,1.34-9.83,1.28-9.83,1.28l-.84-51.4ZM63.92,54.18c-12.81-4.57-38.23-5.25-51.73-.03v-5.1c8.17-4.78,43.26-4.88,51.73,0v5.13ZM11.52,44.78c15.77-5.03,35.88-5.49,53.07,0-17.8-4.59-36.76-4.21-53.07,0ZM74.8,48.13c4.29-13.8-77.75-13.7-73.49,0-.28-.75-.54-1.72.26-3.03,1.67-2.45,5.54-3.98,8.38-4.87,24.25-7.54,68.71-2.28,64.85,7.9Z"/>
    </g>
  </g>
</svg>