<?xml version="1.0" encoding="UTF-8"?>
<svg id="Layer_2" data-name="Layer 2" xmlns="http://www.w3.org/2000/svg" xmlns:xlink="http://www.w3.org/1999/xlink" viewBox="0 0 113 120.99">
  <defs>
    <style>
      .cls-1 {
        fill: #2a102d;
      }

      .cls-2 {
        fill: #ffaf10;
      }

      .cls-3 {
        clip-path: url(#clippath);
      }
    </style>
    <clipPath id="clippath">
      <circle class="cls-2" cx="56.5" cy="56.5" r="56.5"/>
    </clipPath>
  </defs>
  <g id="Layer_1-2" data-name="Layer 1">
    <g>
      <circle class="cls-2" cx="56.5" cy="56.5" r="56.5"/>
      <g class="cls-3">
        <g>
          <path class="cls-1" d="M109.52,74.47c.23,1.55-.14,2.93-1.13,4.15-.18.23-.39.43-.62.61-1.21.97-2.59,1.34-4.13,1.11-.29-.04-.58-.12-.85-.22-1.46-.56-2.48-1.57-3.05-3.02-.11-.27-.19-.56-.23-.85-.25-1.55.12-2.95,1.11-4.19.19-.23.4-.44.63-.63,1.23-.98,2.61-1.35,4.16-1.1.29.04.57.12.84.23,1.46.57,2.47,1.58,3.04,3.05.11.28.18.56.23.86M108.05,76.03c.23-1.53-.28-2.76-1.52-3.68-.39-.29-.85-.48-1.32-.55-1.53-.23-2.76.28-3.68,1.52-.29.39-.48.85-.55,1.33-.23,1.53.28,2.76,1.52,3.68.39.29.85.48,1.32.55,1.53.23,2.76-.28,3.68-1.52.29-.39.48-.85.55-1.32M102.48,72.77h2.29c.65,0,1.12.13,1.41.39.29.26.44.61.44,1.05,0,.34-.11.64-.33.89-.22.25-.57.43-1.05.55.2.08.34.16.43.24.13.12.27.29.41.52,0,.02.28.51.83,1.48h-1.51c-.49-.98-.82-1.56-.99-1.75-.17-.19-.34-.29-.5-.29-.04,0-.09,0-.16.02v2.02h-1.27v-5.12ZM103.7,74.92h.58c.39,0,.66-.06.82-.19.16-.13.24-.29.24-.49s-.08-.36-.23-.49c-.15-.13-.41-.19-.78-.19h-.64v1.36Z"/>
          <path class="cls-1" d="M49.71,46.83c0,.23.02.45.07.67,2.1.49,4.16,1.07,6.18,1.74.58-.64.94-1.48.94-2.42,0-1.98-1.61-3.59-3.59-3.59s-3.59,1.61-3.59,3.59M33.95,78.3c3.1-5.1,6.72-8.89,11.64-12.21.61-.42,1.24-.8,1.88-1.17.44-.25.61-.66.58-1.05,0-.53-.49-.91-.93-1.12-1.34-.62-2.72-1.5-4.06-2.54-1.57-1.22-3.01-2.59-4.36-4.06-.95-1.04-2.02-2.38-3-3.81-.81-1.18-.63-2.77.43-3.73,1.1-1,2.26-1.92,3.48-2.76.36-.25.72-.49,1.1-.73,2.43-1.55,5.05-2.79,7.79-3.7,3.23-1.07,6.62-1.66,10.03-1.74.59-.35,1.19-.69,1.8-1.01,1.66-.88,3.38-1.62,5.17-2.21,1.58-.54,3.2-.95,4.85-1.24,3.28-.59,6.64-.7,9.95-.32,1.23.14,2.45.34,3.68.62,2.87.64,5.59,1.62,8.09,2.9.54.27.71.95.36,1.45-1.58,2.22-3.46,4.25-5.5,6.05-3.01,2.65-6.51,4.75-10.26,6.17-2.32.88-4.75,1.53-7.22,1.91-.62.1-.78.9-.24,1.22,0,0,.01,0,.02.01,6.97,4.05,13.1,9.22,18.36,15.32.72.83,1.42,1.68,2.1,2.53,3.36,4.22,6.23,8.82,8.56,13.68,1.8,3.73,3.27,7.63,4.39,11.62.73,2.6,1.34,5.24,1.76,7.91.11.76-.87,1.16-1.3.53-1.15-1.69-2.31-3.35-3.61-4.93-1.2-1.46-2.46-2.86-3.75-4.24-5.44-5.8-11.84-10.7-18.84-14.48-7.32-3.94-15.09-6.38-23.44-6.53-2.23-.04-4.46.08-6.68.3-4.05.43-8.02,1.28-11.93,2.4-.03,0-.05.01-.08.02,0,0-.01,0-.02,0-.07.02-.14.03-.21.03-.53,0-.91-.6-.61-1.09M50.95,12.97c-1.31,1.16-2.2,2.71-2.9,4.29-1.66,3.74-2.85,7.74-3.52,11.77-.32,1.92-.56,3.87-1.28,5.69-.17.44-.37.87-.6,1.28-1.18,2.1-3.37,3.19-5.6,3.86-4.96,1.47-10.14,1.97-15.25,2.65-2.37.31-8.03,1.12-7.34,4.69.46,2.36,2.26,4.16,4.08,5.6,2.66,2.11,5.44,4.09,8.33,5.88,1.87,1.15,3.85,2.11,5.6,3.44,1.74,1.33,3.15,3.05,3.58,5.25.22,1.16-.18,2.35-1,3.2-1.57,1.63-3,3.41-4.25,5.29-1.32,2.1-2.38,4.35-3.25,6.65-.59,1.44.97,2.98,2.41,2.37.53-.21,1.07-.41,1.61-.61,2.26-.82,4.68.73,4.93,3.12.17,1.61.38,3.17.63,4.57.46,2.57,3.14,3.63,5.32,1.41,2.84-2.88,4.66-6.31,7.84-8.86,2.53-2.03,6.26-4.17,9.71-3.59,3.17.56,6.27,1.52,9.23,2.85,5.32,2.32,10.36,5.29,14.95,8.86,9.17,7.1,16.56,16.51,21.27,27.1.93,2.07,4.03,1.44,4.1-.83.55-17.71-5.72-35.46-17.11-49.01-2.87-3.42-6.07-6.65-9.59-9.44-.88-.8-1.54-1.7-1.38-2.93.38-2.97,2-4.32,4.04-5.85,2.51-1.89,5.02-3.85,7.16-6.21.03-.03.06-.06.09-.1,1.24-1.37,2.38-2.83,3.4-4.37,1.2-1.81.6-4.26-1.3-5.31,0,0-.96-.52-1.45-.76-2.72-1.34-5.61-2.36-8.6-3.03-2.76-.62-5.58-.93-8.38-.93-2.38,0-4.76.22-7.09.67-1.96.37-3.97-.31-5.25-1.84-.28-.34-.54-.69-.79-1.04-.58-.84-1.09-1.71-1.63-2.58-1.29-2.06-1.87-3.63-2.89-5.84-1.06-2.29-1.85-4.73-3.26-6.86-.73-1.11-1.53-1.54-2.32-1.54s-1.54.41-2.24,1.02"/>
        </g>
      </g>
    </g>
  </g>
</svg>