<svg width="118" height="18" viewBox="0 0 118 18" fill="none" xmlns="http://www.w3.org/2000/svg">
<path d="M79.5322 0.266602V9.56445C79.5322 12.8052 81.5888 14.7227 85.1143 14.7227C88.6395 14.7225 90.7207 12.805 90.7207 9.56445H90.708V0.266602H94.2705V9.50391C94.2704 14.638 90.6223 18 85.1016 18C79.5808 18 75.9698 14.6137 75.9697 9.50391V0.266602H79.5322ZM6.41406 0.0117188C8.11552 0.0117188 9.31532 0.946684 10.0498 2.60938L14.5303 12.8662C15.6687 15.4512 17.8115 15.1602 17.8115 15.1602C17.8114 16.6166 16.6477 17.9883 14.9463 17.9883C13.2449 17.9882 12.045 17.0534 11.3105 15.3906L6.83105 5.13379C5.69259 2.54866 3.5498 2.83984 3.5498 2.83984C3.54998 1.38356 4.71284 0.0119103 6.41406 0.0117188ZM107.124 0C111.041 0.0485858 117.149 0.752637 117.504 5.64355H113.587C113.244 3.1679 107.699 3.08316 104.871 3.3623C104.841 3.3635 101.456 3.50329 101.456 5.1709C101.452 5.19438 101.238 6.68983 104.59 7.00293C104.97 7.03939 109.903 7.45229 110.258 7.47656L110.515 7.50098C113.379 7.79225 114.884 7.95017 116.635 9.3457H116.61C118.422 10.8993 118.704 14.3583 115.962 16.1426C113.477 17.7204 110.368 17.9154 107.491 17.9883C103.28 17.9883 97.2453 17.1747 97.2451 11.9072H101.125C101.247 13.1451 101.983 13.8859 103.256 14.25C104.774 14.6747 106.23 14.7353 107.662 14.7354C110.931 14.7354 114.126 14.2009 113.918 12.3682C113.734 10.7055 111.494 10.5352 110.441 10.4502H110.343C109.671 10.4018 106.534 10.2094 106.512 10.208C104.541 10.0745 103.096 9.85603 102.215 9.69824C100.306 9.34632 99.3631 8.61801 98.751 8.08398C97.1719 6.6032 96.9266 3.32552 99.4482 1.6748C101.688 0.218292 104.529 0.060688 107.124 0ZM43.334 3.56836H28.6201V7.33105H41.7432V10.6328H28.6201V14.4316H43.334V17.7451H25.0332V0.266602H43.334V3.56836ZM72.3096 17.7451H68.7227V0.266602H72.3096V17.7451ZM3.5625 17.7334H0V7.1123C0.000182558 3.05864 3.5625 2.83984 3.5625 2.83984V17.7334ZM57.3994 0.254883C60.4597 0.279158 64.3896 0.959293 64.3896 5.02539C64.3895 6.80908 63.5815 8.01042 62.627 8.6416C63.5941 8.933 65.4912 9.85601 65.4912 12.793C65.4912 15.7303 63.7648 17.7334 58.4766 17.7334H47.0068V0.254883H57.3994ZM21.373 10.8994C21.373 14.9275 17.8565 15.169 17.8115 15.1719V0.279297H21.373V10.8994ZM50.5811 14.4316H58.5137C60.1661 14.4316 61.7694 14.1645 61.7695 12.502C61.7695 10.8392 60.0072 10.5108 58.4648 10.5107H50.5811V14.4316ZM50.5938 7.41602H58.5254C59.5046 7.40388 60.9489 7.10053 60.9492 5.62012C60.9492 4.13936 59.6887 3.56838 58.0361 3.56836H50.5938V7.41602Z" fill="white" fill-opacity="0.95"/>
</svg>
